<svg viewBox="0 0 30 30" fill="none" xmlns="http://www.w3.org/2000/svg" class="shadow">
                <path
                    d="M7.5 25.109H10.7629C11.1883 25.109 11.6111 25.1596 12.0235 25.2609L15.4711 26.0986C16.2191 26.2809 16.9985 26.2986 17.7544 26.1518L21.5663 25.4101C22.5731 25.214 23.4995 24.7319 24.2254 24.0256L26.9224 21.4021C27.6925 20.6543 27.6925 19.4405 26.9224 18.6914C26.229 18.0169 25.1309 17.9409 24.3464 18.5129L21.2033 20.8061C20.7531 21.1351 20.2054 21.3123 19.6421 21.3123H16.6069H18.5389C19.6278 21.3123 20.5099 20.4541 20.5099 19.3949V19.0115C20.5099 18.1319 19.8945 17.365 19.0176 17.1524L16.0357 16.4273C15.5505 16.3095 15.0535 16.25 14.5539 16.25C13.3479 16.25 11.1649 17.2485 11.1649 17.2485L7.5 18.7811M2.5 18.25V25.5C2.5 26.2001 2.5 26.5501 2.63624 26.8175C2.75609 27.0528 2.94731 27.2439 3.18251 27.3638C3.4499 27.5 3.79994 27.5 4.5 27.5H5.5C6.20006 27.5 6.5501 27.5 6.81749 27.3638C7.05269 27.244 7.24391 27.0528 7.36376 26.8175C7.5 26.5501 7.5 26.2001 7.5 25.5V18.25C7.5 17.55 7.5 17.1999 7.36376 16.9325C7.24391 16.6974 7.05269 16.5061 6.81749 16.3863C6.5501 16.25 6.20006 16.25 5.5 16.25H4.5C3.79994 16.25 3.4499 16.25 3.18251 16.3863C2.94731 16.5061 2.75609 16.6974 2.63624 16.9325C2.5 17.1999 2.5 17.55 2.5 18.25ZM21.4893 4.49034C20.7433 2.92926 19.0232 2.10225 17.3505 2.90049C15.6779 3.69873 14.9653 5.59175 15.6656 7.25355C16.0984 8.2806 17.3384 10.275 18.2226 11.6488C18.5493 12.1564 18.7126 12.4102 18.9513 12.5586C19.1559 12.686 19.4121 12.7546 19.653 12.7468C19.9339 12.7374 20.2023 12.5993 20.7389 12.3231C22.1915 11.5754 24.2626 10.4682 25.151 9.79518C26.5884 8.70618 26.9445 6.70449 25.8684 5.18283C24.7921 3.66115 22.9159 3.51143 21.4893 4.49034Z"
                    stroke-linecap="round" stroke-linejoin="round"/>
            </svg>