<svg xmlns="http://www.w3.org/2000/svg" xmlns:xlink="http://www.w3.org/1999/xlink" viewBox="0 0 562 498" width="562" height="498" preserveAspectRatio="xMidYMid meet" style="width: 100%; height: 100%; transform: translate3d(0px, 0px, 0px); content-visibility: visible;"><defs><clipPath id="__lottie_element_12"><rect width="562" height="498" x="0" y="0"></rect></clipPath><clipPath id="__lottie_element_14"><path d="M0,0 L562,0 L562,498 L0,498z"></path></clipPath></defs><g clip-path="url(#__lottie_element_12)"><g clip-path="url(#__lottie_element_14)" transform="matrix(1,0,0,1,0,0)" opacity="1" style="display: block;"><g transform="matrix(0.800000011920929,0,0,0.800000011920929,37.60200119018555,178.20538330078125)" opacity="1" style="display: block;"><path stroke-linecap="butt" stroke-linejoin="miter" fill-opacity="0" stroke-miterlimit="4" stroke="rgb(0,0,0)" stroke-opacity="1" stroke-width="0" d=" M32.22,89.8 C30.28,105.81 39.13,113.3 49.74,115 C62.59,117.07 72.43,109.22 74.59,95.75 C74.59,95.75 89.91,0.25 89.91,0.25 C89.91,0.25 119.1,4.93 119.1,4.93 C119.1,4.93 103.78,100.44 103.78,100.44 C98.8,131.46 72.59,146.09 44.63,141.61 C18.31,137.38 0.25,118.16 2.35,89.4 C2.35,89.4 32.22,89.8 32.22,89.8z"></path><g opacity="1" transform="matrix(1,0,0,1,59.67300033569336,73.16999816894531)"><path fill="rgb(255,255,255)" fill-opacity="1" d=" M-27.451000213623047,16.625999450683594 C-29.392000198364258,32.641998291015625 -20.54800033569336,40.13100051879883 -9.9350004196167,41.83300018310547 C2.9210000038146973,43.895999908447266 12.760000228881836,36.05400085449219 14.920000076293945,22.584999084472656 C14.920000076293945,22.584999084472656 30.239999771118164,-72.91999816894531 30.239999771118164,-72.91999816894531 C30.239999771118164,-72.91999816894531 59.42399978637695,-68.23899841308594 59.42399978637695,-68.23899841308594 C59.42399978637695,-68.23899841308594 44.104000091552734,27.267000198364258 44.104000091552734,27.267000198364258 C39.12799835205078,58.2859992980957 12.918999671936035,72.91999816894531 -15.038999557495117,68.43599700927734 C-41.36399841308594,64.21299743652344 -59.42399978637695,44.98899841308594 -57.323001861572266,16.229999542236328 C-57.323001861572266,16.229999542236328 -27.451000213623047,16.625999450683594 -27.451000213623047,16.625999450683594z"></path></g></g><g transform="matrix(0.800000011920929,0.000004742813871416729,-0.000004742813871416729,0.800000011920929,137.3063507080078,129.90440368652344)" opacity="1" style="display: block;"><path stroke-linecap="butt" stroke-linejoin="miter" fill-opacity="0" stroke-miterlimit="4" stroke="rgb(0,0,0)" stroke-opacity="1" stroke-width="0" d=" M0.25,136.29 C0.25,136.29 49.5,0.25 49.5,0.25 C49.5,0.25 77.29,10.31 77.29,10.31 C77.29,10.31 28.04,146.35 28.04,146.35 C28.04,146.35 0.25,136.29 0.25,136.29z"></path><g opacity="1" transform="matrix(1,0,0,1,38.770999908447266,73.29900360107422)"><path fill="rgb(255,255,255)" fill-opacity="1" d=" M-38.520999908447266,62.986000061035156 C-38.520999908447266,62.986000061035156 10.732000350952148,-73.0479965209961 10.732000350952148,-73.0479965209961 C10.732000350952148,-73.0479965209961 38.520999908447266,-62.986000061035156 38.520999908447266,-62.986000061035156 C38.520999908447266,-62.986000061035156 -10.732999801635742,73.0479965209961 -10.732999801635742,73.0479965209961 C-10.732999801635742,73.0479965209961 -38.520999908447266,62.986000061035156 -38.520999908447266,62.986000061035156z"></path></g></g><g transform="matrix(0.800000011920929,-0.000003161875838486594,0.000003161875838486594,0.800000011920929,200.34654235839844,180.26321411132812)" opacity="1" style="display: block;"><path stroke-linecap="butt" stroke-linejoin="miter" fill-opacity="0" stroke-miterlimit="4" stroke="rgb(0,0,0)" stroke-opacity="1" stroke-width="0" d=" M99.19,4.17 C99.19,4.17 128.49,0.25 128.49,0.25 C128.49,0.25 147.69,143.65 147.69,143.65 C147.69,143.65 90.74,151.27 90.74,151.27 C90.74,151.27 30.39,19.85 30.39,19.85 C30.39,19.85 48.75,156.9 48.75,156.9 C48.75,156.9 19.45,160.82 19.45,160.82 C19.45,160.82 0.25,17.42 0.25,17.42 C0.25,17.42 56.99,9.82 56.99,9.82 C56.99,9.82 117.55,141.22 117.55,141.22 C117.55,141.22 99.19,4.17 99.19,4.17z"></path><g opacity="1" transform="matrix(1,0,0,1,73.97000122070312,80.53500366210938)"><path fill="rgb(255,255,255)" fill-opacity="1" d=" M25.222999572753906,-76.36199951171875 C25.222999572753906,-76.36199951171875 54.51599884033203,-80.28399658203125 54.51599884033203,-80.28399658203125 C54.51599884033203,-80.28399658203125 73.72000122070312,63.11199951171875 73.72000122070312,63.11199951171875 C73.72000122070312,63.11199951171875 16.770999908447266,70.73699951171875 16.770999908447266,70.73699951171875 C16.770999908447266,70.73699951171875 -43.57600021362305,-60.685001373291016 -43.57600021362305,-60.685001373291016 C-43.57600021362305,-60.685001373291016 -25.222999572753906,76.36199951171875 -25.222999572753906,76.36199951171875 C-25.222999572753906,76.36199951171875 -54.516998291015625,80.28399658203125 -54.516998291015625,80.28399658203125 C-54.516998291015625,80.28399658203125 -73.72000122070312,-63.11199951171875 -73.72000122070312,-63.11199951171875 C-73.72000122070312,-63.11199951171875 -16.97599983215332,-70.71099853515625 -16.97599983215332,-70.71099853515625 C-16.97599983215332,-70.71099853515625 43.57600021362305,60.683998107910156 43.57600021362305,60.683998107910156 C43.57600021362305,60.683998107910156 25.222999572753906,-76.36199951171875 25.222999572753906,-76.36199951171875z"></path></g></g><g transform="matrix(0.800000011920929,-0.000005138047981745331,0.000005138047981745331,0.800000011920929,332.5272216796875,137.4321746826172)" opacity="1" style="display: block;"><path stroke-linecap="butt" stroke-linejoin="miter" fill-opacity="0" stroke-miterlimit="4" stroke="rgb(0,0,0)" stroke-opacity="1" stroke-width="0" d=" M118.68,144.93 C118.68,144.93 108.34,113.51 108.34,113.51 C108.34,113.51 40.34,113.51 40.34,113.51 C40.34,113.51 30.22,144.93 30.22,144.93 C30.22,144.93 0.25,144.93 0.25,144.93 C0.25,144.93 49.03,0.25 49.03,0.25 C49.03,0.25 101.52,0.25 101.52,0.25 C101.52,0.25 150.3,144.93 150.3,144.93 C150.3,144.93 118.68,144.93 118.68,144.93z M48.82,87.26 C48.82,87.26 99.87,87.26 99.87,87.26 C99.87,87.26 74.45,8.93 74.45,8.93 C74.45,8.93 48.82,87.26 48.82,87.26z"></path><g opacity="1" transform="matrix(1,0,0,1,75.27400207519531,72.58799743652344)"><path fill="rgb(255,255,255)" fill-opacity="1" d=" M43.402000427246094,72.33899688720703 C43.402000427246094,72.33899688720703 33.06800079345703,40.92300033569336 33.06800079345703,40.92300033569336 C33.06800079345703,40.92300033569336 -34.93000030517578,40.92300033569336 -34.93000030517578,40.92300033569336 C-34.93000030517578,40.92300033569336 -45.05699920654297,72.33899688720703 -45.05699920654297,72.33899688720703 C-45.05699920654297,72.33899688720703 -75.0250015258789,72.33899688720703 -75.0250015258789,72.33899688720703 C-75.0250015258789,72.33899688720703 -26.249000549316406,-72.33899688720703 -26.249000549316406,-72.33899688720703 C-26.249000549316406,-72.33899688720703 26.249000549316406,-72.33899688720703 26.249000549316406,-72.33899688720703 C26.249000549316406,-72.33899688720703 75.0250015258789,72.33899688720703 75.0250015258789,72.33899688720703 C75.0250015258789,72.33899688720703 43.402000427246094,72.33899688720703 43.402000427246094,72.33899688720703z M-26.454999923706055,14.673999786376953 C-26.454999923706055,14.673999786376953 24.594999313354492,14.673999786376953 24.594999313354492,14.673999786376953 C24.594999313354492,14.673999786376953 -0.8270000219345093,-63.65700149536133 -0.8270000219345093,-63.65700149536133 C-0.8270000219345093,-63.65700149536133 -26.454999923706055,14.673999786376953 -26.454999923706055,14.673999786376953z"></path></g></g><g transform="matrix(0.800000011920929,0.000007904689482529648,-0.000007904689482529648,0.800000011920929,335.7402648925781,259.8727722167969)" opacity="1" style="display: block;"><path stroke-linecap="butt" stroke-linejoin="miter" fill-opacity="0" stroke-miterlimit="4" stroke="rgb(0,0,0)" stroke-opacity="1" stroke-width="0" d=" M158.26,91 C151.07,141.56 106.89,164.58 66.69,154.98 C24.87,144.99 0.25,105.74 10,64.93 C19.75,24.13 59.45,0.25 101.27,10.24 C134.03,18.07 152.85,43.39 157.25,66.75 C157.25,66.75 128.27,70.66 128.27,70.66 C124.94,55.21 113.27,40.94 94.97,36.57 C70.05,30.62 45.95,46.11 39.75,72.04 C33.56,97.98 48.05,122.69 72.98,128.64 C95.29,133.97 113.62,123.05 120.39,108.94 C120.39,108.94 68.33,96.51 68.33,96.51 C68.33,96.51 74.43,70.98 74.43,70.98 C74.43,70.98 158.26,91 158.26,91z"></path><g opacity="1" transform="matrix(1,0,0,1,79.25399780273438,82.41600036621094)"><path fill="rgb(255,255,255)" fill-opacity="1" d=" M79.00399780273438,8.588000297546387 C71.81199645996094,59.14400100708008 27.63800048828125,82.16600036621094 -12.567000389099121,72.56099700927734 C-54.38100051879883,62.57099914550781 -79.00399780273438,23.32699966430664 -69.25499725341797,-17.481000900268555 C-59.50600051879883,-58.28900146484375 -19.802000045776367,-82.16500091552734 22.011999130249023,-72.1760025024414 C54.77799987792969,-64.3479995727539 73.59100341796875,-39.02899932861328 77.99600219726562,-15.664999961853027 C77.99600219726562,-15.664999961853027 49.012001037597656,-11.751999855041504 49.012001037597656,-11.751999855041504 C45.691001892089844,-27.207000732421875 34.01300048828125,-41.472999572753906 15.720000267028809,-45.84299850463867 C-9.206999778747559,-51.79800033569336 -33.30799865722656,-36.305999755859375 -39.50299835205078,-10.373000144958496 C-45.698001861572266,15.559000015258789 -31.202999114990234,40.270999908447266 -6.276000022888184,46.22600173950195 C16.03700065612793,51.55699920654297 34.37099838256836,40.637001037597656 41.14099884033203,26.52899932861328 C41.14099884033203,26.52899932861328 -10.925000190734863,14.092000007629395 -10.925000190734863,14.092000007629395 C-10.925000190734863,14.092000007629395 -4.823999881744385,-11.437999725341797 -4.823999881744385,-11.437999725341797 C-4.823999881744385,-11.437999725341797 79.00399780273438,8.588000297546387 79.00399780273438,8.588000297546387z"></path></g></g></g></g></svg>